<?xml version="1.0" encoding="UTF-8"?>
<svg version="1.1" xmlns="http://www.w3.org/2000/svg" width="512" height="512">
<path d="M0 0 C5.22067543 3.12152885 8.53407513 7.39434578 10.54296875 13.11328125 C12.10979604 19.8268988 11.95704495 25.39857732 8.625 31.5 C5.064094 36.52845956 0.82054605 41.003277 -3.375 45.5 C-3.97441406 46.14759277 -4.57382812 46.79518555 -5.19140625 47.46240234 C-8.19957734 50.71087584 -11.2221035 53.94522554 -14.2578125 57.16796875 C-17.11618472 60.20952666 -19.88293738 63.31681837 -22.60546875 66.48046875 C-24.9838442 69.19486193 -27.43008905 71.84572387 -29.875 74.5 C-32.91394492 77.80022784 -35.93656211 81.10949474 -38.875 84.5 C-42.23822638 88.37817013 -45.70835671 92.15527811 -49.18310547 95.93310547 C-53.61723628 100.75584891 -58.0001824 105.6234112 -62.375 110.5 C-63.87471128 112.16692647 -65.37471321 113.83359149 -66.875 115.5 C-67.98875 116.7375 -67.98875 116.7375 -69.125 118 C-120.875 175.5 -120.875 175.5 -123.1328125 178.0078125 C-124.60792618 179.64739879 -126.08191652 181.28799655 -127.5546875 182.9296875 C-131.67597768 187.5203061 -135.82373788 192.08447107 -140 196.625 C-143.55753099 200.49367822 -147.05789575 204.40334125 -150.5 208.375 C-153.39351009 211.65431143 -156.36588359 214.86106712 -159.328125 218.078125 C-161.88055143 220.85494057 -164.40483288 223.64980717 -166.875 226.5 C-170.2817735 230.4308925 -173.80502785 234.25196573 -177.328125 238.078125 C-179.88055143 240.85494057 -182.40483288 243.64980717 -184.875 246.5 C-188.2817735 250.4308925 -191.80502785 254.25196573 -195.328125 258.078125 C-197.88055143 260.85494057 -200.40483288 263.64980717 -202.875 266.5 C-223.32478399 289.99758833 -223.32478399 289.99758833 -231.3984375 290.80078125 C-232.50445312 290.80464844 -233.61046875 290.80851562 -234.75 290.8125 C-235.85085937 290.82925781 -236.95171875 290.84601563 -238.0859375 290.86328125 C-243.75373842 290.23726523 -247.59075375 287.62464596 -251.6875 283.8125 C-252.54859375 283.01585937 -253.4096875 282.21921875 -254.296875 281.3984375 C-255.32344778 280.43285602 -256.34943915 279.46665621 -257.375 278.5 C-258.6509342 277.30457278 -259.92698368 276.10926861 -261.203125 274.9140625 C-264.8549443 271.48782828 -268.4970762 268.05143764 -272.13720703 264.61279297 C-275.71228562 261.23741329 -279.29386142 257.86894752 -282.875 254.5 C-284.29170014 253.16670224 -285.70836675 251.83336884 -287.125 250.5 C-287.82625 249.84 -288.5275 249.18 -289.25 248.5 C-308.375 230.5 -327.5 212.5 -346.625 194.5 C-347.32705566 193.8392749 -348.02911133 193.1785498 -348.75244141 192.49780273 C-350.16110401 191.17193592 -351.56963388 189.84592809 -352.97802734 188.51977539 C-356.64104914 185.07100261 -360.30673321 181.62512282 -363.9765625 178.18359375 C-364.73388672 177.47267578 -365.49121094 176.76175781 -366.27148438 176.02929688 C-367.7068176 174.68202091 -369.14295331 173.33559911 -370.58007812 171.99023438 C-373.83164875 168.93650219 -377.06139287 165.86179316 -380.24609375 162.73828125 C-380.80224365 162.19341064 -381.35839355 161.64854004 -381.93139648 161.0871582 C-386.33751606 156.24288569 -386.9931487 150.62799017 -386.77734375 144.34375 C-385.80077775 137.44141941 -382.82404796 132.14055232 -377.25 127.9375 C-370.9264677 124.24001932 -364.03854999 123.56783445 -356.9375 125.25 C-350.31092035 127.81512761 -345.3751894 133.63048955 -340.375 138.5 C-339.05243548 139.67886046 -337.72056292 140.84745962 -336.375 142 C-332.4441075 145.4067735 -328.62303427 148.93002785 -324.796875 152.453125 C-322.02005943 155.00555143 -319.22519283 157.52983288 -316.375 160 C-312.4441075 163.4067735 -308.62303427 166.93002785 -304.796875 170.453125 C-302.02005943 173.00555143 -299.22519283 175.52983288 -296.375 178 C-292.4441075 181.4067735 -288.62303427 184.93002785 -284.796875 188.453125 C-282.02005943 191.00555143 -279.22519283 193.52983288 -276.375 196 C-272.98448237 198.93844861 -269.67562926 201.96147953 -266.375 205 C-252.09630089 219.74818151 -252.09630089 219.74818151 -233.5625 225.5 C-225.12580067 224.39790865 -219.55288682 219.18803935 -214.3203125 212.8359375 C-211.93265712 209.96883325 -209.4088004 207.23705099 -206.875 204.5 C-203.83515712 201.20062096 -200.81341512 197.89047899 -197.875 194.5 C-194.51177362 190.62182987 -191.04164329 186.84472189 -187.56689453 183.06689453 C-183.13276372 178.24415109 -178.7498176 173.3765888 -174.375 168.5 C-172.87528872 166.83307353 -171.37528679 165.16640851 -169.875 163.5 C-169.1325 162.675 -168.39 161.85 -167.625 161 C-151.875 143.5 -151.875 143.5 -149.6171875 140.9921875 C-148.14207382 139.35260121 -146.66808348 137.71200345 -145.1953125 136.0703125 C-141.07402232 131.4796939 -136.92626212 126.91552893 -132.75 122.375 C-129.19246901 118.50632178 -125.69210425 114.59665875 -122.25 110.625 C-119.35648991 107.34568857 -116.38411641 104.13893288 -113.421875 100.921875 C-110.86944857 98.14505943 -108.34516712 95.35019283 -105.875 92.5 C-102.46755081 88.56832786 -98.94370327 84.74638756 -95.41967773 80.91967773 C-92.88759884 78.16526572 -90.38464732 75.39257501 -87.9375 72.5625 C-84.31355356 68.37967989 -80.54244254 64.33728193 -76.77978516 60.27978516 C-73.52884488 56.76787256 -70.34515687 53.20998582 -67.21484375 49.58984375 C-64.80829844 46.85629441 -62.34196804 44.17885994 -59.875 41.5 C-56.83609823 38.19973124 -53.813439 34.89050653 -50.875 31.5 C-47.51455697 27.62503937 -44.05002854 23.84834945 -40.57348633 20.07788086 C-37.52967124 16.77366036 -34.53764592 13.42898045 -31.5625 10.0625 C-23.05384223 0.61349146 -12.98234279 -5.65319744 0 0 Z " fill="#FFFFFF" transform="translate(436.375,116.5)"/>
</svg>
