<?xml version="1.0" encoding="UTF-8"?>
<svg version="1.1" xmlns="http://www.w3.org/2000/svg" width="512" height="512">
<path d="M0 0 C2.92182236 2.28356019 4.82945712 4.45691347 6.171875 7.8828125 C6.5078125 10.6875 6.5078125 10.6875 6.546875 13.7578125 C6.57523437 14.76585938 6.60359375 15.77390625 6.6328125 16.8125 C5.54448796 24.06184822 -0.73618767 29.07018585 -5.71209717 34.0072937 C-6.51180758 34.80871296 -7.31151799 35.61013222 -8.13546205 36.43583691 C-10.81311831 39.11678424 -13.49785428 41.79052633 -16.18261719 44.46435547 C-18.10535217 46.38541198 -20.02657518 48.30797803 -21.94786072 50.23048401 C-26.0833942 54.3670648 -30.22256579 58.49997587 -34.36425018 62.6303978 C-40.35238006 68.60225478 -46.33496184 74.57964462 -52.31621578 80.55838741 C-62.02119149 90.25898883 -71.73062258 99.95511802 -81.44287109 109.6484375 C-90.87588163 119.06308236 -100.30678361 128.4798312 -109.73486328 137.89941406 C-110.31627652 138.48030186 -110.89768977 139.06118966 -111.4967216 139.65968011 C-114.41356737 142.57391576 -117.33037179 145.48819278 -120.24715567 148.40249038 C-144.43440575 172.56901623 -168.62889287 196.72828505 -192.828125 220.8828125 C-191.46192188 223.94329141 -189.91789551 226.03851342 -187.54502201 228.39525127 C-186.86362787 229.07692732 -186.18223374 229.75860336 -185.48019129 230.46093625 C-184.72932841 231.20188072 -183.97846554 231.9428252 -183.20484924 232.70622253 C-182.40896438 233.49958285 -181.61307952 234.29294317 -180.79307693 235.11034471 C-178.11616325 237.77647478 -175.43219458 240.43539033 -172.74829102 243.09448242 C-170.83066143 245.00057894 -168.91459486 246.90824353 -166.99853516 248.81591797 C-162.86692569 252.92810408 -158.73200739 257.03693832 -154.59515572 261.14385033 C-148.05474494 267.63751013 -141.52470871 274.14154761 -134.99632263 280.64729309 C-132.76213364 282.87347912 -130.52787756 285.09959781 -128.29360104 287.32569599 C-127.73522912 287.88202945 -127.17685721 288.43836291 -126.60156493 289.01155495 C-120.24579679 295.34383837 -113.88789801 301.67398056 -107.52905273 308.00317383 C-106.94780079 308.58172091 -106.36654884 309.16026799 -105.7676832 309.7563468 C-96.35063484 319.12904549 -86.92592786 328.49401387 -77.49925781 337.85703393 C-67.81869462 347.47279082 -58.14969428 357.10007307 -48.49047607 366.73727113 C-42.53380292 372.67950549 -36.56783943 378.61209488 -30.58955645 384.53258923 C-26.49170829 388.59240416 -22.40487912 392.66309688 -18.32649345 396.74246218 C-15.97415669 399.09467305 -13.61579139 401.43985469 -11.24703026 403.7755909 C-8.67672773 406.31154406 -6.12561411 408.86538661 -3.5783844 411.42448425 C-2.82975225 412.15427512 -2.08112009 412.88406598 -1.30980211 413.63597172 C3.17679941 418.19284277 6.16051594 422.45402004 7.171875 428.8828125 C6.78318256 435.33102755 4.76692606 439.39716742 0.171875 443.8828125 C-3.11282282 445.9607409 -5.84754055 446.20875926 -9.703125 446.2578125 C-10.71117187 446.28617187 -11.71921875 446.31453125 -12.7578125 446.34375 C-20.00716072 445.25542546 -25.01549835 438.97474983 -29.9526062 433.99884033 C-30.75402546 433.19912992 -31.55544472 432.39941951 -32.38114941 431.57547545 C-35.06209674 428.89781919 -37.73583883 426.21308322 -40.40966797 423.52832031 C-42.33072448 421.60558533 -44.25329053 419.68436232 -46.17579651 417.76307678 C-50.3123773 413.6275433 -54.44528837 409.48837171 -58.5757103 405.34668732 C-64.54756728 399.35855744 -70.52495712 393.37597566 -76.50369991 387.39472172 C-86.20430133 377.68974601 -95.90043052 367.98031492 -105.59375 358.26806641 C-115.00839486 348.83505587 -124.4251437 339.40415389 -133.84472656 329.97607422 C-134.42561436 329.39466098 -135.00650216 328.81324773 -135.60499261 328.2142159 C-138.51922826 325.29737013 -141.43350528 322.38056571 -144.34780288 319.46378183 C-168.51432873 295.27653175 -192.67359755 271.08204463 -216.828125 246.8828125 C-219.890344 248.25016251 -221.99193257 249.79871198 -224.35453033 252.1687088 C-225.03928987 252.85071964 -225.72404941 253.53273047 -226.42955923 254.23540831 C-227.1739143 254.9869533 -227.91826938 255.7384983 -228.68518066 256.51281738 C-229.48206881 257.30940781 -230.27895696 258.10599824 -231.09999323 258.92672777 C-233.77781276 261.6059399 -236.44841012 264.29223822 -239.11914062 266.97851562 C-241.03339194 268.89772904 -242.94917089 270.8154148 -244.86491394 272.73313904 C-248.99374935 276.86774888 -253.11901396 281.00589381 -257.24198914 285.14634705 C-263.20647759 291.13593399 -269.17742828 297.11904546 -275.15017325 303.10039788 C-284.84467519 312.80903637 -294.53543415 322.52140118 -304.22314453 332.23681641 C-304.80300316 332.81833066 -305.3828618 333.39984492 -305.9802919 333.99898082 C-310.09633563 338.12682565 -314.21224583 342.2548036 -318.328125 346.3828125 C-323.02969307 351.09823636 -327.73132151 355.8136 -332.43310547 360.52880859 C-333.30183292 361.40002042 -333.30183292 361.40002042 -334.18811041 362.28883249 C-343.83953488 371.96761422 -353.49487518 381.64248041 -363.1530261 391.31454992 C-369.11175442 397.28224765 -375.06689542 403.25348322 -381.01748407 409.22929752 C-385.09347446 413.32212067 -389.17297758 417.41141968 -393.25528157 421.49794543 C-395.6117584 423.85711613 -397.96595561 426.21845201 -400.31693077 428.58311272 C-402.86374258 431.14428571 -405.41659143 433.69928407 -407.97106934 436.25280762 C-408.71542441 437.00435261 -409.45977948 437.75589761 -410.22669077 438.53021669 C-411.25383007 439.55323295 -411.25383007 439.55323295 -412.30171967 440.5969162 C-412.89039621 441.18743633 -413.47907275 441.77795646 -414.08558798 442.38637114 C-418.69905165 446.34828287 -423.02470071 446.30994728 -428.9140625 446.1953125 C-434.21552601 445.62679094 -436.66784995 443.10415466 -440.203125 439.3828125 C-442.55138226 434.32502764 -442.79909807 429.36595457 -441.828125 423.8828125 C-438.669174 418.38761487 -434.42206622 414.20132636 -429.94415283 409.7583313 C-429.14444242 408.95691204 -428.34473201 408.15549278 -427.52078795 407.32978809 C-424.84313169 404.64884076 -422.15839572 401.97509867 -419.47363281 399.30126953 C-417.55089783 397.38021302 -415.62967482 395.45764697 -413.70838928 393.53514099 C-409.5728558 389.3985602 -405.43368421 385.26564913 -401.29199982 381.1352272 C-395.30386994 375.16337022 -389.32128816 369.18598038 -383.34003422 363.20723759 C-373.63505851 353.50663617 -363.92562742 343.81050698 -354.21337891 334.1171875 C-344.78036837 324.70254264 -335.34946639 315.2857938 -325.92138672 305.86621094 C-325.33997348 305.28532314 -324.75856023 304.70443534 -324.1595284 304.10594489 C-321.24268263 301.19170924 -318.32587821 298.27743222 -315.40909433 295.36313462 C-291.22184425 271.19660877 -267.02735713 247.03733995 -242.828125 222.8828125 C-244.19192126 219.83009898 -245.72944815 217.73537226 -248.09561062 215.38319778 C-248.77352136 214.70438844 -249.4514321 214.02557909 -250.14988559 213.32619977 C-250.89685752 212.58846412 -251.64382945 211.85072848 -252.41343689 211.09063721 C-253.2052382 210.30065488 -253.99703951 209.51067255 -254.8128348 208.69675136 C-257.47592012 206.04210164 -260.14606791 203.39466888 -262.81616211 200.74707031 C-264.72336054 198.84861853 -266.63014292 196.94975802 -268.53636169 195.05032349 C-272.64662128 190.95607473 -276.76024624 186.86523291 -280.87589836 182.77640533 C-287.38225296 176.31196842 -293.87881622 169.83774104 -300.37391663 163.36199951 C-302.59661358 161.14618252 -304.81938648 158.93044171 -307.04219151 156.71473312 C-307.59769362 156.16100266 -308.15319574 155.60727219 -308.72553126 155.03676201 C-315.04851809 148.7342693 -321.37383019 142.43411229 -327.69995117 136.13476562 C-328.2782125 135.55894685 -328.85647383 134.98312807 -329.45225824 134.38986024 C-338.82219705 125.05992313 -348.19803821 115.73593362 -357.57518678 106.41324368 C-367.20417191 96.83970041 -376.82351074 87.25653418 -386.43480688 77.66523242 C-392.36236881 71.7507416 -398.29779702 65.84437056 -404.24359811 59.94821474 C-408.31869721 55.90584634 -412.38466106 51.85443853 -416.44358676 47.79583123 C-418.78495859 45.45522551 -421.13155062 43.12031241 -423.48659515 40.79345322 C-426.0413705 38.26802416 -428.58027138 35.7276241 -431.11582947 33.18292236 C-431.86057067 32.4541096 -432.60531188 31.72529685 -433.372621 30.97439885 C-438.02541393 26.26197354 -441.61289854 21.75559754 -441.91884845 14.82880902 C-441.5541026 9.89883668 -439.97038678 6.61955623 -436.828125 2.8828125 C-432.60896067 -0.58627818 -429.30633253 -2.02433652 -423.828125 -2.1171875 C-416.14683726 -0.69439231 -411.63741189 3.22544367 -406.30491638 8.68449402 C-405.4968503 9.48743356 -404.68878421 10.29037309 -403.85623127 11.11764413 C-401.16110466 13.80291384 -398.48793964 16.50901448 -395.81420898 19.21557617 C-393.88482941 21.14999366 -391.95092555 23.07986505 -390.01719666 25.00993347 C-385.86098219 29.16300837 -381.7158574 33.32688931 -377.57815361 37.49840355 C-371.59580576 43.52960295 -365.59687353 49.54408143 -359.5938207 55.55466441 C-349.8537431 65.3078598 -340.12712797 75.07436663 -330.40893555 84.84936523 C-320.97099974 94.34241135 -311.52675575 103.8291082 -302.07397461 113.30737305 C-301.49088799 113.89203601 -300.90780137 114.47669897 -300.30704545 115.07907899 C-297.38170666 118.01224826 -294.45624358 120.94529353 -291.53071868 123.87827718 C-267.27722126 148.19393142 -243.0455555 172.53123802 -218.828125 196.8828125 C-215.76764609 195.51660938 -213.67242408 193.97258301 -211.31568623 191.59970951 C-210.63401018 190.91831537 -209.95233414 190.23692124 -209.25000125 189.53487879 C-208.50905678 188.78401591 -207.7681123 188.03315304 -207.00471497 187.25953674 C-206.21135465 186.46365188 -205.41799433 185.66776702 -204.60059279 184.84776443 C-201.93446272 182.17085075 -199.27554717 179.48688208 -196.61645508 176.80297852 C-194.71035856 174.88534893 -192.80269397 172.96928236 -190.89501953 171.05322266 C-186.78283342 166.92161319 -182.67399918 162.78669489 -178.56708717 158.64984322 C-172.07342737 152.10943244 -165.56938989 145.57939621 -159.06364441 139.05101013 C-156.83745838 136.81682114 -154.61133969 134.58256506 -152.38524151 132.34828854 C-151.82890805 131.78991662 -151.27257459 131.23154471 -150.69938255 130.65625243 C-144.36709913 124.30048429 -138.03695694 117.94258551 -131.70776367 111.58374023 C-131.12921659 111.00248829 -130.55066951 110.42123634 -129.9545907 109.8223707 C-120.58189201 100.40532234 -111.21692363 90.98061536 -101.85390357 81.55394531 C-92.23814668 71.87338212 -82.61086443 62.20438178 -72.97366637 52.54516357 C-67.03143201 46.58849042 -61.09884262 40.62252693 -55.17834827 34.64424395 C-51.11853334 30.54639579 -47.04784062 26.45956662 -42.96847532 22.38118095 C-40.61626445 20.02884419 -38.27108281 17.67047889 -35.9353466 15.30171776 C-33.39939344 12.73141523 -30.84555089 10.18030161 -28.28645325 7.6330719 C-27.55666238 6.88443975 -26.82687152 6.13580759 -26.07496578 5.36448961 C-18.6259997 -1.96960921 -9.69118721 -5.92239218 0 0 Z " fill="#000000" transform="translate(473.828125,34.1171875)"/>
</svg>
