<?xml version="1.0" encoding="UTF-8"?>
<svg version="1.1" xmlns="http://www.w3.org/2000/svg" width="512" height="512">
<path d="M0 0 C26.31455241 -0.66759964 49.75741723 8.11688229 69.7578125 25.15625 C74.48619651 29.90204979 76.9107358 33.15363612 77.0703125 39.90625 C77.01349976 45.18352204 76.51102555 48.20549942 72.7578125 52.15625 C68.53864817 55.62534068 65.23602003 57.06339902 59.7578125 57.15625 C52.99299172 56.08877369 49.06472606 52.87585307 44.19140625 48.28125 C32.39903992 37.98422386 16.86603505 33.7074221 1.44921875 33.8828125 C-27.90869974 36.05747313 -45.08144582 56.82747848 -64.63671875 76.3125 C-65.60856542 77.2802865 -66.58044056 78.24804441 -67.55234337 79.21577454 C-72.11413154 83.75861835 -76.6735759 88.30379832 -81.23010141 92.8519206 C-86.45068291 98.06270698 -91.67947351 103.26507338 -96.91526109 108.4605794 C-100.99316179 112.50819895 -105.06324045 116.56358031 -109.12767905 120.62471724 C-111.54239801 123.03710383 -113.96019918 125.44618011 -116.38642311 127.84700012 C-119.08985926 130.52596898 -121.78025937 133.21742346 -124.46801758 135.91210938 C-125.25621384 136.68749557 -126.0444101 137.46288177 -126.85649109 138.26176453 C-140.38923488 151.92129791 -147.66993255 168.64113716 -147.61083984 187.84399414 C-147.12726588 204.66882967 -140.59510609 219.57081497 -128.90625 231.71875 C-115.75439865 243.75211546 -99.03450223 248.96982517 -81.46484375 248.46484375 C-66.77743143 247.64680207 -53.35386045 242.15253378 -42.55200195 232.11328125 C-42.03631055 231.63413269 -41.52061914 231.15498413 -40.98930073 230.66131592 C-36.03201991 226.02309647 -31.23728782 221.22642018 -26.48317528 216.38070679 C-24.98444172 214.85460953 -23.48076715 213.3335335 -21.97566223 211.8137207 C-17.70682733 207.50279937 -13.44142877 203.18860476 -9.19165039 198.85888672 C-6.56701029 196.18558982 -3.9325843 193.52227963 -1.29162025 190.8651123 C-0.29724891 189.86090704 0.693473 188.85307324 1.68027687 187.84143066 C12.42134446 176.83543684 12.42134446 176.83543684 21.1953125 175.71875 C26.98530562 176.42980179 31.17260584 178.48975069 35.1953125 182.71875 C37.30091798 186.00349454 37.92838356 188.63630378 38.0078125 192.46875 C38.04648437 193.57669922 38.04648437 193.57669922 38.0859375 194.70703125 C37.2767692 200.74689467 33.49872127 204.85930638 29.33105469 209.00292969 C28.78900391 209.55345001 28.24695313 210.10397034 27.68847656 210.6711731 C25.90161448 212.48134482 24.10385409 214.28018806 22.3046875 216.078125 C21.04424541 217.34567939 19.78409823 218.61352711 18.52423096 219.88165283 C15.87972194 222.53959818 13.22936122 225.19154305 10.57519531 227.83984375 C7.20991545 231.1992713 3.8631114 234.57644173 0.52112961 237.95902634 C-2.08013992 240.58644231 -4.69310654 243.20199195 -7.30928802 245.81455231 C-8.54574633 247.05268119 -9.77832551 248.29469884 -11.00656891 249.54097748 C-21.25233631 259.92037515 -32.62572685 269.71781344 -46.4296875 275.03125 C-47.47032349 275.44129272 -47.47032349 275.44129272 -48.53198242 275.85961914 C-74.57351201 285.60245944 -103.11298631 284.57727192 -128.40234375 273.0703125 C-138.21479196 268.32588552 -146.50185512 261.76885412 -154.2421875 254.15625 C-155.38300781 253.03476562 -155.38300781 253.03476562 -156.546875 251.890625 C-173.99169635 233.6610885 -182.01084635 208.63110387 -181.71240234 183.66455078 C-180.54184212 151.65880513 -165.75466812 129.56268478 -143.70605469 107.44311523 C-142.79903305 106.5295224 -141.89201141 105.61592957 -140.95750427 104.6746521 C-137.98817148 101.68457669 -135.01378016 98.69956037 -132.0390625 95.71484375 C-131.00507947 94.67680327 -129.97112636 93.63873299 -128.93720245 92.60063362 C-124.07934256 87.72379495 -119.21912251 82.84932371 -114.35595679 77.97777599 C-108.78179898 72.39384508 -103.21603007 66.80172357 -97.6572082 61.20252651 C-93.33106287 56.8460619 -88.99711772 52.49745355 -84.65743566 48.15447384 C-82.07840141 45.57310916 -79.50265715 42.98866812 -76.93520355 40.39578056 C-52.820212 16.05415558 -52.820212 16.05415558 -36.9296875 8.84375 C-36.22457031 8.51818115 -35.51945313 8.1926123 -34.79296875 7.85717773 C-23.71751565 2.94146006 -12.06166231 0.58128493 0 0 Z " fill="#000000" transform="translate(229.2421875,181.84375)"/>
<path d="M0 0 C3.49376681 2.85289834 6.7845123 5.83757315 10 9 C10.76054687 9.74765625 11.52109375 10.4953125 12.3046875 11.265625 C29.74950885 29.4951615 37.76865885 54.52514613 37.47021484 79.49169922 C36.29965462 111.49744487 21.51248062 133.59356522 -0.53613281 155.71313477 C-1.44315445 156.6267276 -2.35017609 157.54032043 -3.28468323 158.4815979 C-6.25401602 161.47167331 -9.22840734 164.45668963 -12.203125 167.44140625 C-13.23710803 168.47944673 -14.27106114 169.51751701 -15.30498505 170.55561638 C-20.16284494 175.43245505 -25.02306499 180.30692629 -29.88623071 185.17847401 C-35.46038852 190.76240492 -41.02615743 196.35452643 -46.5849793 201.95372349 C-50.91112463 206.3101881 -55.24506978 210.65879645 -59.58475184 215.00177616 C-62.16378609 217.58314084 -64.73953035 220.16758188 -67.30698395 222.76046944 C-91.4219755 247.10209442 -91.4219755 247.10209442 -107.3125 254.3125 C-108.01761719 254.63806885 -108.72273438 254.9636377 -109.44921875 255.29907227 C-119.2982606 259.67046084 -130.20464181 262.57246106 -141 263 C-142.60488281 263.07734375 -142.60488281 263.07734375 -144.2421875 263.15625 C-170.55673991 263.82384964 -193.99960473 255.03936771 -214 238 C-218.72838401 233.25420021 -221.1529233 230.00261388 -221.3125 223.25 C-221.25568726 217.97272796 -220.75321305 214.95075058 -217 211 C-212.78083567 207.53090932 -209.47820753 206.09285098 -204 206 C-197.23517922 207.06747631 -193.30691356 210.28039693 -188.43359375 214.875 C-176.64122742 225.17202614 -161.10822255 229.4488279 -145.69140625 229.2734375 C-116.33348776 227.09877687 -99.16074168 206.32877152 -79.60546875 186.84375 C-78.63362208 185.8759635 -77.66174694 184.90820559 -76.68984413 183.94047546 C-72.12805596 179.39763165 -67.5686116 174.85245168 -63.01208609 170.3043294 C-57.79150459 165.09354302 -52.56271399 159.89117662 -47.32692641 154.6956706 C-43.24902571 150.64805105 -39.17894705 146.59266969 -35.11450845 142.53153276 C-32.69978949 140.11914617 -30.28198832 137.71006989 -27.85576439 135.30924988 C-25.15232824 132.63028102 -22.46192813 129.93882654 -19.77416992 127.24414062 C-18.98597366 126.46875443 -18.1977774 125.69336823 -17.38569641 124.89448547 C-3.85295262 111.23495209 3.42774505 94.51511284 3.36865234 75.31225586 C2.88507838 58.48742033 -3.64708141 43.58543503 -15.3359375 31.4375 C-28.81801196 19.10199492 -45.48677605 14.23874333 -63.36328125 14.69140625 C-77.83401557 15.41240004 -91.11769893 21.20567671 -101.6940918 31.04296875 C-102.46720593 31.76169159 -102.46720593 31.76169159 -103.25593853 32.49493408 C-108.21137403 37.13390447 -113.00548747 41.93042894 -117.75901222 46.77554321 C-119.25774578 48.30164047 -120.76142035 49.8227165 -122.26652527 51.3425293 C-126.53536017 55.65345063 -130.80075873 59.96764524 -135.05053711 64.29736328 C-137.67517721 66.97066018 -140.3096032 69.63397037 -142.95056725 72.2911377 C-143.94493859 73.29534296 -144.9356605 74.30317676 -145.92246437 75.31481934 C-156.66353196 86.32081316 -156.66353196 86.32081316 -165.4375 87.4375 C-171.22749312 86.72644821 -175.41479334 84.66649931 -179.4375 80.4375 C-181.54310548 77.15275546 -182.17057106 74.51994622 -182.25 70.6875 C-182.27578125 69.94886719 -182.3015625 69.21023437 -182.328125 68.44921875 C-181.5189567 62.40935533 -177.74090877 58.29694362 -173.57324219 54.15332031 C-173.03119141 53.60279999 -172.48914063 53.05227966 -171.93066406 52.4850769 C-170.14380198 50.67490518 -168.34604159 48.87606194 -166.546875 47.078125 C-165.28643291 45.81057061 -164.02628573 44.54272289 -162.76641846 43.27459717 C-160.12190944 40.61665182 -157.47154872 37.96470695 -154.81738281 35.31640625 C-151.45210295 31.9569787 -148.1052989 28.57980827 -144.76331711 25.19722366 C-142.16204758 22.56980769 -139.54908096 19.95425805 -136.93289948 17.34169769 C-135.69644117 16.10356881 -134.46386199 14.86155116 -133.23561859 13.61527252 C-122.98985119 3.23587485 -111.61646065 -6.56156344 -97.8125 -11.875 C-97.11874268 -12.14836182 -96.42498535 -12.42172363 -95.71020508 -12.70336914 C-64.13572474 -24.51623591 -26.9725049 -20.89199801 0 0 Z " fill="#000000" transform="translate(427,67)"/>
</svg>
